<svg xmlns="http://www.w3.org/2000/svg" viewBox="0 0 64 64">
  <rect width="64" height="64" rx="14" fill="#ffffff"/>
  <path d="M44 9c-8.5-3.2-18.9.3-23.3 8.8-1.6 3-2.2 6.4-1.8 9.8-5.1 1.7-8.4 6.1-8.4 11.6 0 7.2 5.8 12.8 13.1 12.8h10.7c9.9 0 17.9-7.9 17.9-17.6v-9.1C52.2 17.8 49.3 11 44 9Z" fill="#d9232e"/>
  <path d="M19.2 27.6c2.9-.9 6.2-.6 9.2 1.1 4.8 2.8 6.9 8.2 5.2 13.2" fill="none" stroke="#8f0f18" stroke-width="4" stroke-linecap="round"/>
  <path d="M38.1 11.2c2.4 5.7.3 12.7-5 16.1" fill="none" stroke="#f05a61" stroke-width="5" stroke-linecap="round"/>
  <path d="M17 49h19v9H17z" fill="#222222"/>
  <path d="M20 49h13v9H20z" fill="#f5f5f5" opacity=".9"/>
</svg>
